<svg width="16" height="16" viewBox="0 0 16 16" fill="none" xmlns="http://www.w3.org/2000/svg">
<path fill-rule="evenodd" clip-rule="evenodd" d="M0 16V14.197H0.55701H0.856579L1.15615 14.1579L1.45572 14.0896L1.68661 13.9394L1.75528 13.8571L1.84278 13.6818L1.90507 13.4242V13.1667V12.9091V12.6515V12.3939V12.1364V11.8788V11.6212V11.3636V11.1061V10.8485V10.5909L1.90791 10.3333L1.90507 10.0758V9.8182V9.56062V9.30305V9.04547V8.7879V8.53032V8.27274V8.01517V7.75759V7.50002V7.24244V6.98487V6.72729V6.46972V6.21214V5.95457V5.69699V5.43942V5.18184V4.92427V4.66669V4.40911V4.15154V3.89396V3.63639V3.37881V3.12124V2.86366V2.60609L1.85138 2.34851L1.75528 2.15998L1.69161 2.09094L1.45572 1.93278L1.15615 1.85459L0.856579 1.83336H0.00906547V1.57579V1.31821V1.06064V0H0.55701H9.84363L10.1432 0.0200757L10.4428 0.0433241L10.7423 0.0718562L11.0419 0.112012L11.3415 0.159122L11.641 0.221914L11.9207 0.287909L11.9406 0.295958L12.2402 0.383494L12.5397 0.483103L12.7012 0.545484L12.8393 0.603841L13.1389 0.745709L13.2477 0.80306L13.4385 0.909712L13.6819 1.06063L13.738 1.09987L14.0376 1.32525L14.3231 1.57579L14.57 1.83336L14.6367 1.90983L14.7725 2.09094L14.9363 2.33141L14.948 2.34851L15.0861 2.60609L15.2054 2.86366L15.2359 2.94818L15.3002 3.12124L15.3786 3.37881L15.4371 3.63639L15.4839 3.89396L15.5144 4.15154L15.5296 4.40911L15.5354 4.66669V4.92426L15.5155 5.18184L15.4875 5.43941L15.443 5.69699L15.3856 5.95457L15.3096 6.21214L15.2359 6.42041L15.216 6.46972L15.1036 6.72729L14.9679 6.98487L14.9363 7.0392L14.8029 7.24244L14.6367 7.47285L14.6133 7.50002L14.391 7.75759L14.3372 7.81695L14.1254 8.01517L14.0376 8.08962L13.8024 8.27274L13.738 8.32607L13.4385 8.51824L13.1389 8.68828L12.9329 8.78789L12.8393 8.83418L12.5397 8.9529L12.2882 9.04547L12.2402 9.06056L11.9406 9.15111L11.641 9.22859L11.3415 9.28996L11.0419 9.3453L11.3146 9.81819L11.4772 10.0758L11.634 10.3333L11.799 10.5909L11.9406 10.8173L11.9582 10.8485L12.1196 11.1061L12.2402 11.2972L12.2846 11.3636L12.4426 11.6212L12.5397 11.7782L12.6053 11.8788L12.7644 12.1364L12.8393 12.2652L12.9224 12.3939L13.0874 12.6515L13.1389 12.737L13.2477 12.9091L13.408 13.1667L13.566 13.4242L13.738 13.6537L13.7684 13.6818L14.0376 13.9193L14.0622 13.9394L14.3372 14.0682L14.6367 14.1447L14.9363 14.1849L15.2359 14.197H16V16H9.69385V14.197H11.0782L10.9179 13.9394L10.7634 13.6818L10.5926 13.4242L10.4357 13.1667L10.2743 12.9091L10.1432 12.6988L10.1116 12.6515L9.95363 12.3939L9.84363 12.2169L9.78863 12.1364L9.63066 11.8788L9.54406 11.741L9.46917 11.6212L9.30885 11.3636L9.2445 11.259L9.14737 11.1061L8.98705 10.8485L8.94493 10.7801L8.82557 10.5909L8.66525 10.3333L8.50259 10.0758L8.34579 9.81819L8.17728 9.56062H5.05054V13.6818V13.8478L5.10671 13.9394L5.3501 14.1094L5.64967 14.1779L5.94924 14.1919L6.61976 14.197V16H0ZM5.4385 7.58759H9.72688L10.0264 7.56667L10.326 7.53634L10.6256 7.49498L10.9252 7.41779L11.2247 7.33002L11.5243 7.20124L11.7777 7.07245L11.8239 7.03182L12.1234 6.81487L12.3901 6.5573L12.5728 6.29972L12.7396 6.04215L12.8422 5.78457L12.9288 5.527L12.9929 5.26942L13.0221 5.01185L13.0539 4.75427V4.4967V4.23912L13.0221 3.98154L12.9929 3.72397L12.9288 3.46639L12.8487 3.20882L12.7226 2.95124L12.5505 2.69367L12.423 2.54344L12.3324 2.43609L12.1234 2.28428L11.9736 2.17852L11.8239 2.10232L11.5243 1.96447L11.3745 1.92094L11.2247 1.87074L10.9252 1.79215L10.6256 1.74116L10.326 1.70532L10.0264 1.68326L9.72688 1.66337H5.4353L5.4385 7.58759Z" fill="white"/>
</svg>
